<svg width="24" height="26" viewBox="0 0 24 26" fill="none" xmlns="http://www.w3.org/2000/svg">
<path d="M16.5762 16.1788C20.043 16.3253 22.875 19.2062 22.875 22.7218V23.1613C22.875 24.4796 21.8008 25.505 20.5312 25.505H3.34375C2.02539 25.505 1 24.4796 1 23.1613V22.7218C1 19.2062 3.7832 16.3253 7.25 16.1788L11.9375 20.8175L16.5762 16.1788ZM1.63477 4.41125C0.755859 4.21594 0.755859 3.0929 1.63477 2.89758L10.9609 0.651489C11.5957 0.505005 12.2305 0.505005 12.8652 0.651489L22.1914 2.89758C23.0703 3.0929 23.0703 4.21594 22.1914 4.41125L17.5039 5.5343C17.8945 6.41321 18.1875 7.34094 18.1875 8.3175C18.1875 11.7843 15.3555 14.5675 11.9375 14.5675C8.4707 14.5675 5.6875 11.7843 5.6875 8.3175C5.6875 7.34094 5.93164 6.41321 6.37109 5.5343L3.14844 4.80188V7.34094C3.49023 7.53625 3.73438 7.92688 3.73438 8.3175C3.73438 8.75696 3.49023 9.09875 3.14844 9.29407L3.92969 12.3214C4.02734 12.6632 3.83203 13.005 3.53906 13.005H1.53711C1.24414 13.005 1.04883 12.6632 1.14648 12.3214L1.92773 9.29407C1.58594 9.09875 1.39062 8.75696 1.39062 8.3175C1.39062 7.92688 1.63477 7.53625 1.97656 7.34094V4.50891L1.63477 4.41125Z" fill="#E84E10"/>
</svg>
